<svg id="Layer_1" data-name="Layer 1" xmlns="http://www.w3.org/2000/svg" viewBox="0 0 250 250"><defs><style>.cls-1{fill:#45bb90;}.cls-2{fill:#136f4e;}</style></defs><title>book</title><circle class="cls-1" cx="125" cy="125" r="125"/><path class="cls-2" d="M173.21,106.9h0.65l2.35,0.54,34.43,7.67q21.81,4.87,43.62,9.76c5.78,1.3,7.77,7,3.94,11.46Q224.66,175,191.07,213.7a7.39,7.39,0,0,1-8.45,2.44c-6.38-1.91-12.81-3.67-19.22-5.5q-22.74-6.48-45.48-13c-4.7-1.33-8.7.57-10.07,4.88a21.11,21.11,0,0,0,.06,13.13c1.45,4.47,4.09,8.32,8.68,9.72,23.38,7.11,46.83,14,70.24,21a1.65,1.65,0,0,0,2.05-.62q28.05-33.86,56.18-67.66a2.65,2.65,0,0,0,.6-2.49,27.62,27.62,0,0,1,1.8-17.18,6.28,6.28,0,0,1,10.85-.72c1.53,2.22,1.25,4.51.46,6.83a14.83,14.83,0,0,0-.12,10.22c1.39,3.69.46,6.5-1.94,9.38q-30.4,36.46-60.66,73a7.53,7.53,0,0,1-8.79,2.68q-35-10.44-70-20.78a42.45,42.45,0,0,1-7.66-2.64,27.42,27.42,0,0,1-13.38-15.33A87.15,87.15,0,0,1,94,212.45v-6.52c0.55-2.75,1-5.52,1.67-8.26,1.34-5.77,3.53-11.17,7.55-15.65q31.65-35.27,63.31-70.52C168.44,109.43,170.3,107.43,173.21,106.9Zm-0.69,25.61c-3,0-4.88.43-6.28,2-1.87,2-3.65,4.16-5.36,6.33a2.12,2.12,0,0,0,.84,3.4,8.69,8.69,0,0,0,2,.76c15.57,3.81,31.14,7.64,46.73,11.37,3.38,0.81,6.46.09,8.72-2.88a34.6,34.6,0,0,1,3-3.6c3.12-3.11,1.68-4.91-1.91-5.8l-0.32-.05L183,135C179.22,134.06,175.42,133.19,172.52,132.5Z" transform="translate(-59.44 -58.59)"/></svg>