<svg xmlns="http://www.w3.org/2000/svg" viewBox="0 0 250 250"><defs><style>.cls-1{fill:#ed3937;}.cls-2{fill:#f3f3f3;}.cls-3{fill:#c89464;}.cls-4{fill:#dcdddc;}.cls-5{fill:#b5875b;}.cls-6{fill:#c4c3c3;}.cls-7{fill:#c2c1c1;}.cls-8{fill:#c2c2c2;}.cls-9{fill:#fcfdfd;}.cls-10{fill:#b4b3b4;}.cls-11{fill:#513217;}.cls-12{fill:#513117;}</style></defs><title>coffee</title><g id="Layer_2" data-name="Layer 2"><g id="Layer_1-2" data-name="Layer 1"><g id="_4JFm0b.tif" data-name="4JFm0b.tif"><circle class="cls-1" cx="125" cy="125" r="125"/><path class="cls-2" d="M71.82,107.18c-1.34-8.66-2.72-17.32-4-26-.19-1.32-.66-1.7-1.92-1.64-2,.09-4.1-.07-6.14,0-1.36.08-1.59-.4-1.32-1.6.4-1.74.78-3.49,1-5.26.15-1.12.68-1.51,1.69-1.34,1.49.25,2.15-.36,2.37-1.83.28-1.92,0-4.54,1.41-5.5s3.78-.43,5.72-.32c1.74.09,2.55-.27,2.79-2.25.43-3.62,1.32-7.19,1.9-10.8.21-1.33.65-1.86,2.09-1.85q38.1.11,76.21.12a3.16,3.16,0,0,1,1,2c.58,3.41.77,6.86,1.37,10.27a2.75,2.75,0,0,1-.87,2.77,8.8,8.8,0,0,1-3.29.24H90.37q31,0,62.07,0a7.67,7.67,0,0,1,3.28.27c1.46,2.43,2.14,4.91.59,7.57-1.13.56-2.34.32-3.52.32q-34.77,0-69.53,0H153.9a6.85,6.85,0,0,1,2.78.24c1.4,2.06,2,4.2.67,6.54a5.16,5.16,0,0,1-3.63.88q-33.73,0-67.46,0c-1.94,0-3.86-.44-4.94-.3,6.77.54,14.39,1.1,22,1.72.42,0,.85.09,1.27.1,10.72.13,21.45,1,32.16.44,4.92-.27,9.87-.09,14.77-.82a13.33,13.33,0,0,1,3.57,0c1.68.26,2.78.87,2.73,2.93-.14,6.8-.43,13.6-1.11,20.37a4.27,4.27,0,0,1-1.09,3,5.49,5.49,0,0,1-3.43.72q-38.43,0-76.86,0C74.07,108.24,72.75,108.35,71.82,107.18Z"/><path class="cls-3" d="M71.82,107.18l81.35,0c.85,0,1.7-.07,2.55-.11l.36.33c1.1,2.58.27,5.25,0,7.78-.48,4.4-.5,8.82-.72,13.21-.49,9.74-1.55,19.44-1.75,29.2-.06,3-.47,5.91-.52,8.89a5.26,5.26,0,0,1-1.47,4,5.57,5.57,0,0,1-3.43.74q-31.49,0-63,0c-1.27,0-2.58.11-3.55-1-1.36.08-2-.28-2.27-1.91-2.46-17-5-34.06-7.6-51.08-.41-2.77-.71-5.56-1.27-8.29C70.24,107.58,70.61,107.17,71.82,107.18Z"/><path class="cls-2" d="M81.65,170.19l67.19,0c.94,0,1.87,0,2.81-.06l.36.33a6.64,6.64,0,0,1,.58,4.48c-1.15,9.89-1,19.85-2,29.75a3.79,3.79,0,0,1-1,2.78q-30.27,0-60.53.12c-1.5,0-1.74-.6-1.94-1.92-1.59-10.59-3.31-21.16-4.93-31.74C82,172.66,81.2,171.5,81.65,170.19Z"/><path class="cls-4" d="M156.19,71.87c.37-2.38-.61-4.66-.54-7,1.36-1.36,3.06-.13,4.22-.63-1.34-.32-3.14.62-4.71-.54.2-3.72-1.21-7.25-1.25-11,0-1.22-.21-2.49-.27-3.75,6.3,0,12.6,0,18.9-.11,1.42,0,1.9.49,2.11,1.84.58,3.69,1.4,7.35,2,11,.22,1.46.64,2.08,2.21,2,2.12-.09,4.69-.64,6.23.33s1.09,3.73,1.48,5.71c.24,1.19.75,1.8,2,1.6s1.83.28,2,1.62c.24,2.1,1.67,4.83.82,6.1s-4,.49-6,.4-3.07.3-3.39,2.7c-1.09,8.34-2.48,16.65-3.76,25a3.39,3.39,0,0,1-3,1.05c-5.49,0-11,0-16.46,0a4.26,4.26,0,0,1-3.06-1l0-.2q.51-9,1-17.93c.1-1.84-.4-3.68.24-5.53s-.87-1.38-1.78-1.51c.12-1.24,1.08-1.17,1.94-1.27,4.41-.23,8.79-1,13.22-1.05-3.24,0-6.48.35-9.72.22a5.12,5.12,0,0,1-3.19-.69l-.21-.33-.55-6c.78-1,1.88-.54,2.83-.56,2.78-.06,5.57,0,8.35,0-3.11,0-6.22,0-9.33,0C157.74,72.39,156.83,72.69,156.19,71.87Z"/><path class="cls-5" d="M155.68,107.3l22.51-.11c1.3-.06,2,.11,1.68,1.84-1.42,8.79-2.66,17.61-4,26.43q-2.18,14.85-4.36,29.71a11.43,11.43,0,0,0-.43,2.5c.19,2.12-.84,2.74-2.72,2.53a3.46,3.46,0,0,1-2.54,1q-5.85.06-11.7,0a3.78,3.78,0,0,1-2.57-.94l.06-.14c.51-8.36.93-16.72,1.54-25.07.64-8.78,1.31-17.55,1.54-26.35C154.83,114.87,155.35,111.09,155.68,107.3Z"/><path class="cls-4" d="M151.58,170.23l16.82,0q-2,12.93-4,25.85c-.51,3.27-1.11,6.52-1.49,9.81-.15,1.34-.65,1.7-1.91,1.68-3.82-.09-7.64-.08-11.46-.11.68-10.53.77-21.1,2-31.6A49.42,49.42,0,0,0,151.58,170.23Z"/><path class="cls-6" d="M157.25,81.61c-.72.06-1.49-.12-2.07.51-12,.78-24.11,1.46-36.17,1-8.39-.35-16.79-.5-25.17-1.29-5.48-.52-11-1.17-16.43-1.72-.54-.05-1.23.15-1.63-1H156c.42,0,.85,0,1.27-.06v.16A1.65,1.65,0,0,1,157.25,81.61Z"/><path class="cls-7" d="M156.19,71.87h16V73H156.69l-57.82-.07-18.42,0a3.56,3.56,0,0,1-2.16-.29v-.76Z"/><path class="cls-8" d="M155.17,63.68H164v1.17h-8.37l-48.52-.1c-6.56,0-13.11,0-19.67,0a2.54,2.54,0,0,1-2.59-1.05Z"/><path class="cls-9" d="M103.48,139.16c.09-12.51,9.75-21.81,22.53-21.7,11.49.1,21.08,10.17,21,22.06a21.76,21.76,0,0,1-43.52-.35Z"/><path class="cls-10" d="M157.25,81.61q0-1.22,0-2.44H174.1l0,.64C168.55,80.68,163,81.65,157.25,81.61Z"/><path class="cls-11" d="M122,126.6c7.55,0,15.89,8.48,15.75,16a7.28,7.28,0,0,1-.29,2c-.4,1.3-.82,2.79-2.37,3-1.39.22-2-1.14-2.67-2.08a45.35,45.35,0,0,0-12.54-12.94c-1.37-.9-3.77-1.74-2.95-3.86C117.72,126.84,120,126.57,122,126.6Z"/><path class="cls-12" d="M128.48,151.83c-7.69,0-15.89-8.24-15.91-15.72a7.36,7.36,0,0,1,.23-2.27c.42-1.27.8-2.78,2.34-3.06s2.07,1.06,2.69,2a44.84,44.84,0,0,0,13.31,13.52c1.14.74,2.92,1.55,2.38,3.19s-2.3,2.13-4,2.29C129.11,151.81,128.68,151.82,128.48,151.83Z"/></g></g></g></svg>