<svg id="Layer_1" data-name="Layer 1" xmlns="http://www.w3.org/2000/svg" viewBox="0 0 250 250"><defs><style>.cls-1{fill:#bbb246;}.cls-2{fill:#6e692c;}</style></defs><title>confused</title><circle class="cls-1" cx="125" cy="125" r="125"/><path class="cls-2" d="M197.88,395.83a78.62,78.62,0,1,0,78.62,78.62A78.71,78.71,0,0,0,197.88,395.83Zm0,145.74A67.12,67.12,0,1,1,265,474.45,67.19,67.19,0,0,1,197.88,541.57Z" transform="translate(-72.88 -349.45)"/><path class="cls-2" d="M160,482.59l-8.14-8.14-8.14,8.14A11.51,11.51,0,1,0,160,482.59Z" transform="translate(-72.88 -349.45)"/><path class="cls-2" d="M180.62,464.87a7.67,7.67,0,1,0,7.67,7.67A7.68,7.68,0,0,0,180.62,464.87Z" transform="translate(-72.88 -349.45)"/><path class="cls-2" d="M215.13,464.87a7.67,7.67,0,1,0,7.67,7.67A7.68,7.68,0,0,0,215.13,464.87Z" transform="translate(-72.88 -349.45)"/><path class="cls-2" d="M176.06,428.72a95,95,0,0,1-30.7,25.55l5.32,10.2a106.58,106.58,0,0,0,34.45-28.67Z" transform="translate(-72.88 -349.45)"/><path class="cls-2" d="M219.69,428.72l-9.06,7.09a106.59,106.59,0,0,0,34.45,28.67l5.32-10.2A95,95,0,0,1,219.69,428.72Z" transform="translate(-72.88 -349.45)"/><path class="cls-2" d="M230.68,503.85a19.28,19.28,0,0,0-13.54-8.16,143.79,143.79,0,0,0-38.53,0,19.28,19.28,0,0,0-13.54,8.16,15.58,15.58,0,0,0-2.29,12.74,18.35,18.35,0,0,0,17.95,13.47,19.1,19.1,0,0,0,2.51-.17,109.28,109.28,0,0,1,29.3,0,19,19,0,0,0,2.49.16h0A18.35,18.35,0,0,0,233,516.6,15.58,15.58,0,0,0,230.68,503.85Zm-8.84,9.85a6.94,6.94,0,0,1-6.81,4.86,7.55,7.55,0,0,1-1-.06,120.75,120.75,0,0,0-32.35,0,7.55,7.55,0,0,1-1,.06,6.94,6.94,0,0,1-6.82-4.86,4.32,4.32,0,0,1,.72-3.43,7.8,7.8,0,0,1,5.52-3.17,132.31,132.31,0,0,1,35.46,0,7.8,7.8,0,0,1,5.52,3.17A4.32,4.32,0,0,1,221.84,513.7Z" transform="translate(-72.88 -349.45)"/></svg>