<svg id="Layer_1" data-name="Layer 1" xmlns="http://www.w3.org/2000/svg" viewBox="0 0 250 250"><defs><style>.cls-1{fill:#4b9cd3;}.cls-2{fill:#c8db5b;}</style></defs><title>coworkerdrive</title><circle class="cls-1" cx="125" cy="125" r="125"/><path class="cls-2" d="M140.66,301h53.2c1.41,0.2,2.82.47,4.24,0.6,10.84,1,19,5.63,22.95,16.36,2.73,7.38,5.81,14.64,8.63,22a3.34,3.34,0,0,0,3.2,2.58c4,0.39,5.84,2.94,3.93,6.35-2,3.65-1.12,6.61.12,10a67.46,67.46,0,0,1,2.37,8.3c2.17,9.48,3.69,19.2-.08,28.4-2.3,5.62-2.64,11.07-2.56,16.81,0,1.35,0,2.7,0,4a4.63,4.63,0,0,1-4.94,4.84q-6.79.1-13.58,0c-3.1,0-5-1.92-5.11-5.05-0.08-1.89,0-3.79,0-5.77H121.51c0,2.06.07,4,0,5.86-0.14,2.87-1.94,4.88-4.62,4.94q-7.22.16-14.44,0c-2.77-.06-4.5-2-4.55-4.91-0.07-3.85,0-7.7,0-11.55a11.9,11.9,0,0,0-.21-3.44c-1.38-4.36-2.91-8.68-4.39-13V376.73a10,10,0,0,0,.51-1.32c1.41-6,2.6-12,4.31-17.9,0.83-2.85,1.38-5.16-.17-8.08-2.1-4-.49-6.5,4-7a3,3,0,0,0,2.83-2.25c3-7.79,6.15-15.55,9.21-23.33,3-7.55,8.37-12.35,16.26-14.16C133.63,301.93,137.17,301.55,140.66,301Zm79.68,42c-2.94-7.54-5.84-14.72-8.55-22-2.41-6.44-7.39-9.48-13.78-9.56-20.5-.25-41-0.21-61.51,0-4.6,0-9.2,1.53-11.71,5.78-4.7,8-7.42,16.78-10.19,25.77h17l-0.39-.63c1.71-1.21,3.28-3.14,5.15-3.49a52.57,52.57,0,0,1,13.09-1.08c3.46,0.22,7.41.76,9.14,4.89,0.14,0.34,1.2.4,1.84,0.41,4.53,0,9.05.06,13.58,0a4.34,4.34,0,0,0,2.2-.85c1.67-1.14,3.08-2.89,4.9-3.53a26.09,26.09,0,0,1,15.9-.25c2.66,0.73,5,1.78,5.91,4.58h17.42Zm-53,32.83H154.65c-3.56,0-7.12,0-10.67,0-2.23,0-3.79,1.14-3.83,3.43s1.47,3.43,3.66,3.68a15.55,15.55,0,0,0,1.73,0h36.92c2.6,0,5.19,0,7.79,0,2.3,0,4-1.08,4.12-3.51s-1.62-3.52-4-3.61c-0.86,0-1.73,0-2.6,0H167.34Zm-51-3.83a8.08,8.08,0,0,0-8.08,8.06A8.16,8.16,0,0,0,116.5,388a8,8,0,0,0,8-8.09A7.9,7.9,0,0,0,116.37,372Zm101.69,0a7.82,7.82,0,0,0-8,8,8,8,0,0,0,8.08,8,8.19,8.19,0,0,0,8.13-8.06A8.07,8.07,0,0,0,218.06,372Z" transform="translate(-41.68 -235.54)"/><path class="cls-2" d="M189.35,334.48a9.89,9.89,0,1,0-.15-19.77,9.72,9.72,0,0,0-9.78,9.94A9.89,9.89,0,0,0,189.35,334.48Zm-44.5,0A9.94,9.94,0,0,0,155.09,325a9.94,9.94,0,0,0-19.88-.62A9.9,9.9,0,0,0,144.84,334.48Z" transform="translate(-41.68 -235.54)"/><path class="cls-2" d="M189.35,334.48a9.89,9.89,0,0,1-9.92-9.83,9.72,9.72,0,0,1,9.78-9.94A9.89,9.89,0,1,1,189.35,334.48Z" transform="translate(-41.68 -235.54)"/><path class="cls-2" d="M144.84,334.48a9.88,9.88,0,0,1,.49-19.76A9.77,9.77,0,0,1,155.09,325,9.94,9.94,0,0,1,144.84,334.48Z" transform="translate(-41.68 -235.54)"/></svg>