<svg id="Layer_1" data-name="Layer 1" xmlns="http://www.w3.org/2000/svg" viewBox="0 0 250 250"><defs><style>.cls-1{fill:#615da9;}.cls-2{fill:#292668;}</style></defs><title>decrease</title><circle class="cls-1" cx="125" cy="125" r="125"/><path class="cls-2" d="M-98.81,661.1c4.1-3.4,7.82-6.69,11.77-9.67,1.32-1,3.23-1.2,4.87-1.77,0.49,1.54,1.42,3.09,1.4,4.63q-0.3,20.5-.91,41c-0.14,4.84-2.24,6.87-7,6.19-13.63-1.93-27.24-4.08-40.82-6.35a5.82,5.82,0,0,1-3.85-2.82c-0.37-.82,1-2.8,2-3.78,3.08-2.92,6.38-5.6,9.86-8.61-5.43-6.47-10.7-12.77-16-19-4.95-5.88-10-11.67-14.84-17.63-1.68-2.07-3-2.64-5.66-1.37-14.56,7-29.22,13.87-43.86,20.75-9.11,4.28-14.54,3.46-21.36-4q-21.36-23.28-42.34-46.9c-6.18-7-5.46-15.09,1.3-21.15,6.05-5.42,14.44-4.88,20.5,1.72q16.88,18.4,33.37,37.16c2.34,2.68,3.94,2.92,7.08,1.39,13.89-6.8,27.93-13.3,41.94-19.84,11.44-5.34,16.6-4.14,24.88,5.66q17.34,20.55,34.64,41.12C-101,658.78-100.11,659.68-98.81,661.1Z" transform="translate(293.99 -511.2)"/></svg>