<svg id="Layer_1" data-name="Layer 1" xmlns="http://www.w3.org/2000/svg" viewBox="0 0 250 250"><defs><style>.cls-1{fill:#bb6c73;}.cls-2{fill:#6e121c;}</style></defs><title>increase</title><circle class="cls-1" cx="125" cy="125" r="125"/><path class="cls-2" d="M531.69,1052.75v34.16h-8.06v-20.59l-88,88-28.1-28.1-48,48-5.74-5.74,53.62-53.62,27.9,27.91,81.91-81.91H497.49v-8.07h34.19Z" transform="translate(-330.52 -996.42)"/><path class="cls-2" d="M515,1092.89l5.54,5.54-75.77,75.77-5.6-5.61Z" transform="translate(-330.52 -996.42)"/><path class="cls-2" d="M474.57,1174.18l-5.5-5.5,55.74-55.74,5.5,5.5Z" transform="translate(-330.52 -996.42)"/><path class="cls-2" d="M409.44,1140.12l5.61,5.61-28.45,28.45-5.61-5.61Z" transform="translate(-330.52 -996.42)"/><path class="cls-2" d="M499,1168.59l24.92-24.92,5.57,5.58-24.92,24.92Z" transform="translate(-330.52 -996.42)"/><path class="cls-2" d="M416.09,1174.1l-5.53-5.54,12.5-12.51,5.52,5.55Z" transform="translate(-330.52 -996.42)"/></svg>