<svg id="Layer_1" data-name="Layer 1" xmlns="http://www.w3.org/2000/svg" viewBox="0 0 250 250"><defs><style>.cls-1{fill:#fdb630;}.cls-2{fill:#017978;}</style></defs><title>nap</title><circle class="cls-1" cx="125" cy="125" r="125"/><path class="cls-2" d="M521,498.61l-13.28,25h11.39c1.24,0,2.49,0,3.73,0a7.46,7.46,0,0,1,7.77,7.73c0,7,0,13.9,0,20.85,0,6.28,0,12.55,0,18.83a7.31,7.31,0,0,1-6.45,7.37,7.46,7.46,0,0,1-8.35-5.82,9.15,9.15,0,0,1-.16-2q0-15.17,0-30.35c0-.46,0-0.93,0-1.64h-2.19c-7.21,0-14.42,0-21.63,0-8.43,0-14.44-4.71-15.89-12.79a14.8,14.8,0,0,1,1.83-9.75q9.1-17.08,18.18-34.17c2.89-5.42,7.5-8.34,13.6-8.27s10.67,3.18,13.45,8.76a3.15,3.15,0,0,0,1.5,1.36c2.91,1.22,5.91,2.24,8.79,3.54a17.28,17.28,0,0,0,7.83,1.47c3.89-.12,7.78,0,11.67,0a7.49,7.49,0,1,1,0,15c-5.6,0-11.2.06-16.8,0a12.18,12.18,0,0,1-3.92-.79C528.42,501.58,524.82,500.11,521,498.61Z" transform="translate(-410.56 -386.56)"/><path class="cls-2" d="M535.47,518.69c-3.33,0-6.58.05-9.84,0a5,5,0,1,1,.26-10q13.77,0,27.55,0h56.65a5,5,0,0,1,5.14,3.89,4.92,4.92,0,0,1-2.95,5.72,6.93,6.93,0,0,1-2.43.38c-3.06,0-6.12,0-9.46,0v2q0,25.83,0,51.67a10,10,0,0,1-.23,2.62,4.85,4.85,0,0,1-5.56,3.42,4.92,4.92,0,0,1-4.21-5c0-5.19,0-10.38,0-15.56q0-18.91,0-37.82c0-.36,0-0.72-0.06-1.21H545.56c0,1.94,0,3.84,0,5.74q0,24.36,0,48.71a4.85,4.85,0,0,1-2.6,4.61,4.74,4.74,0,0,1-5-.14,4.92,4.92,0,0,1-2.37-4.45q0-19.45,0-38.91,0-7.16,0-14.32C535.56,519.65,535.51,519.25,535.47,518.69Z" transform="translate(-410.56 -386.56)"/><path class="cls-2" d="M480.75,553.55h-11.1c-1.3,0-2.59,0-3.89,0a4.83,4.83,0,0,1-4.92-4.93q0-22.48,0-45a5,5,0,1,1,10,.21q0,18.83,0,37.65c0,0.61,0,1.23,0,2.05h29.61a5.1,5.1,0,0,1,5.21,4.22,5,5,0,0,1-3.34,5.5,9.06,9.06,0,0,1-2.61.29c-4,0-8,0-12,0h-1.92c0,1.61,0,3.09,0,4.57,0,2.49.05,5,0,7.47a2.52,2.52,0,0,0,1.16,2.33c2.44,1.84,4.85,3.73,7.26,5.61,1.64,1.28,2,2.7,1,4s-2.49,1.22-4.12,0-3.33-2.57-5.16-4c-0.26,2.17.52,4.92-2.64,4.87s-2.3-2.79-2.55-5c-2,1.58-3.91,3-5.79,4.45a2.49,2.49,0,0,1-3,.15,2.24,2.24,0,0,1-1-2.72,3.94,3.94,0,0,1,1.28-1.67c2.51-2,5.11-3.91,7.58-6a3.05,3.05,0,0,0,1-2C480.8,561.69,480.75,557.76,480.75,553.55Z" transform="translate(-410.56 -386.56)"/><path class="cls-2" d="M535.45,483.76a15,15,0,1,1,15.06-15.07A14.85,14.85,0,0,1,535.45,483.76Z" transform="translate(-410.56 -386.56)"/><path class="cls-2" d="M556.5,438.92c-1.13,0-2.25,0-3.38,0a2.48,2.48,0,0,1-2.6-2.49,2.42,2.42,0,0,1,2.45-2.48c3.36-.05,6.73-0.11,10.09.06a3,3,0,0,1,2.19,1.55,3.23,3.23,0,0,1-.56,2.65,38.32,38.32,0,0,1-3.79,3.88,20.72,20.72,0,0,1-1.67,1.32l0.3,0.48c1.11,0,2.23,0,3.34,0a2.5,2.5,0,1,1,.08,5c-3.26,0-6.52,0-9.79,0a2.43,2.43,0,0,1-2.44-1.57,2.4,2.4,0,0,1,.64-2.83c1.75-1.76,3.53-3.48,5.3-5.22Z" transform="translate(-410.56 -386.56)"/><path class="cls-2" d="M579.5,458.85c1.13,0,2.26,0,3.39,0a2.49,2.49,0,1,1-.1,5c-3.21,0-6.42,0-9.64,0a2.43,2.43,0,0,1-2.47-1.52,2.37,2.37,0,0,1,.59-2.84c1.76-1.75,3.55-3.46,5.33-5.18l-0.16-.4c-1.05,0-2.1,0-3.15,0-1.76,0-2.87-1.07-2.84-2.6s1.13-2.41,2.84-2.42c3.11,0,6.22,0,9.33,0a2.51,2.51,0,0,1,2.62,1.56,2.56,2.56,0,0,1-.74,3c-1.77,1.66-3.51,3.34-5.27,5Z" transform="translate(-410.56 -386.56)"/><path class="cls-2" d="M564.56,478.77c1.13,0,2.25,0,3.38,0a2.42,2.42,0,0,1,2.54,2.55,2.36,2.36,0,0,1-2.62,2.44c-3.16,0-6.32,0-9.49,0a2.53,2.53,0,0,1-2.63-1.51,2.56,2.56,0,0,1,.79-3.08,48.9,48.9,0,0,0,4.91-5.35c-1.06,0-2.12,0-3.17,0a2.53,2.53,0,1,1,0-5c3.16,0,6.33-.11,9.48.07a3.72,3.72,0,0,1,2.45,1.47,2.23,2.23,0,0,1-.61,2.93l-5.24,5.07Z" transform="translate(-410.56 -386.56)"/></svg>