<svg id="Layer_1" data-name="Layer 1" xmlns="http://www.w3.org/2000/svg" viewBox="0 0 250 250"><defs><style>.cls-1{fill:#61bbb8;}.cls-2{fill:#146e6c;}</style></defs><title>pills</title><circle class="cls-1" cx="125" cy="125" r="125"/><path class="cls-2" d="M857.64,1077.33q0-3.93,0-7.87c0.15-.8.3-1.59,0.44-2.39q3.56-20.06,21.39-29.92,42.54-23.49,85.09-47c8.63-4.77,17.81-6.54,27.49-4.6,15.23,3,25.64,12,31.07,26.54,1.13,3,1.58,6.31,2.34,9.48v7.87a7.72,7.72,0,0,0-.31,1.09c-1.91,13.66-8.75,24.08-20.8,30.78q-43,23.93-86.16,47.61a38.74,38.74,0,0,1-24.93,4.75c-16.38-2.45-27.55-11.54-33.34-27.05C858.82,1083.67,858.39,1080.44,857.64,1077.33ZM961,1071.19a3.82,3.82,0,0,0,.61-0.21c12.69-7,25.49-13.84,38-21.11a28,28,0,0,0,12.86-30.6,28.47,28.47,0,0,0-41.77-18.45q-18.56,10.2-37.08,20.47a6.74,6.74,0,0,0-.56.37C951.17,1033.21,958.11,1050.93,961,1071.19Zm-58.51-35.44c-4.05,2.33-8,4.5-11.86,6.85-5.59,3.42-11.11,7-15.54,11.89-4.91,5.42-6.67,11.88-5.87,19.46,0.81-1.7,1.39-3.1,2.12-4.41a34.43,34.43,0,0,1,11.55-11.83c7.38-4.86,14.8-9.64,22.2-14.46,0.49-.32,1-0.65,1.5-1Zm10.09-4.71,4.27,6,10.45-6c-2-1.49-3.85-2.87-5.72-4.17a1.5,1.5,0,0,0-1.3-.1C917.72,1028.1,915.23,1029.53,912.56,1031Z" transform="translate(-816.55 -924.47)"/></svg>