<svg id="Layer_1" data-name="Layer 1" xmlns="http://www.w3.org/2000/svg" viewBox="0 0 250 250"><defs><style>.cls-1{fill:#93bb70;}.cls-2{fill:#3f6f35;}</style></defs><title>presentation</title><circle class="cls-1" cx="125" cy="125" r="125"/><path class="cls-2" d="M-14.72,957.65A15,15,0,0,0,.39,942.86a15,15,0,0,0-14.94-15.14,14.94,14.94,0,0,0-15,14.89A14.88,14.88,0,0,0-14.72,957.65Zm89.41-2.72a5.15,5.15,0,0,0-5,6.82,1.79,1.79,0,0,1-.24,1.86c-3.46,4.79-6.88,9.6-10.32,14.4a3.47,3.47,0,0,1-4.51.49c-3.35-3.13-6.7-6.24-10-9.42a2.22,2.22,0,0,1-.54-1.6,5.49,5.49,0,0,0-2.71-5.32,5.23,5.23,0,0,0-5.8.52A5.08,5.08,0,0,0,34,968.24a1.84,1.84,0,0,1-.37,2c-2,2.65-4,5.33-6,8-1,1.31-.93,2.59.1,3.4s2.35,0.59,3.4-.79c1.74-2.3,3.49-4.6,5.18-6.93,0.87-1.21,1.67-2.4,3.46-2,0.61,0.13,1.43,0,1.82.32,3.49,3.17,6.91,6.42,10.32,9.69a1.89,1.89,0,0,1,.49,1.39,5.23,5.23,0,0,0,8.47,4.88,5.07,5.07,0,0,0,1.59-5.7,1.73,1.73,0,0,1,.3-1.85q5.14-7.13,10.23-14.3a2.07,2.07,0,0,1,1.89-1,5.17,5.17,0,0,0,5.09-5.22A5.23,5.23,0,0,0,74.68,954.93Z" transform="translate(98.15 -871.42)"/><path class="cls-2" d="M-46.28,989.82c1.92-2.6,3.86-5.18,5.76-7.79,3.66-5,7.46-10,10.89-15.17,6-9.05,20.18-10.23,27.57-.35,4.08,5.46,8,11,12,16.58a4.11,4.11,0,0,0,3,1.84q8.74,1.4,17.44,3a6,6,0,1,1-2.07,11.83c-7.22-1.19-14.43-2.43-21.64-3.67a6.07,6.07,0,0,1-4-2.61,59,59,0,0,0-4.35-5.58c0.19,1.86.35,3.73,0.59,5.59a235.4,235.4,0,0,1,1.64,29.6q0,17.86.38,35.72c0.09,3.87-.89,6.71-4.79,8H-6.69c-3.85-1.21-5-4-4.95-7.81,0.09-7.14-.11-14.29-0.18-21.44-0.05-5.82-.08-11.64-0.12-17.45,0-.71,0-1.46-1-1.49s-0.92.69-1,1.34c-0.18,1.64-.38,3.27-0.57,4.91-1.34,11.64-2.76,23.27-4,34.92-0.36,3.44-1.5,6-5,7h-2.75c-0.4-.19-0.8-0.38-1.21-0.56a5.72,5.72,0,0,1-3.61-6c0.7-6.46,1.44-12.91,2.17-19.37,1.08-9.54,2.16-19.09,3.29-28.63a1.72,1.72,0,0,0-.86-1.89q-8.29-5.88-16.49-11.87a37.15,37.15,0,0,1-3.36-3.15v-5.5Zm20.37,6.07-1.44-11.54-5,6.92Z" transform="translate(98.15 -871.42)"/><path class="cls-2" d="M17.23,1066.8c-2.45-1.42-2.81-2.37-2.08-5.21q5.39-21.06,10.76-42.13c0.1-.39.15-0.79,0.25-1.28-2.54.09-4-1.08-4.34-3.65-3.62,0-7.23,0-10.84,0a3.26,3.26,0,0,1-1.85-.27c-0.8-.65-1.89-1.54-1.94-2.39-0.22-3.32-.09-6.66-0.09-10.11l6.49,1.09v5.07H88.32v-62H13.66v32.62c-0.43-.47-0.68-0.69-0.87-1-1.72-2.37-3.47-4.73-5.13-7.14a3.53,3.53,0,0,1-.59-1.88q-0.06-12.65,0-25.29c0-2.9,1.11-4,4-4H39.27c0.92-2.77,1.69-3.32,4.51-3.3h3.95c0-1.94.1-3.72,0-5.48A4.28,4.28,0,0,1,50,926h1.92a4.1,4.1,0,0,1,2.45,4.44c-0.11,1.8,0,3.61,0,5.48H58.1c3,0,3.68.48,4.63,3.3h1.47c8.87,0,17.73,0,26.6,0a4.7,4.7,0,0,1,3.7,1.38v72.58a4.78,4.78,0,0,1-3.85,1.38c-2.7-.09-5.4,0-8.11,0a1.08,1.08,0,0,0-1.32,1,3.27,3.27,0,0,1-3.51,2.63H75.8c0.14,0.67.22,1.12,0.33,1.56q5.34,20.93,10.69,41.85c0.74,2.89.46,3.69-1.94,5.27H82.95a5.31,5.31,0,0,1-2.56-3.79c-3.68-14.57-7.44-29.12-11.14-43.68a1.31,1.31,0,0,0-1.55-1.22c-3,.07-6,0-9.06,0H54.3c0,0.72,0,1.26,0,1.8,0,14.19,0,28.38,0,42.57,0,2-.64,3.44-2.46,4.31H50c-1.79-1-2.26-2.55-2.25-4.57,0.07-14.05,0-28.11,0-42.16v-1.95c-4.44,0-8.65.07-12.86,0a1.9,1.9,0,0,0-2.3,1.73c-3.64,14.49-7.36,29-11,43.44a4.65,4.65,0,0,1-2.68,3.54H17.23Z" transform="translate(98.15 -871.42)"/><path class="cls-2" d="M-14.72,957.65a14.88,14.88,0,0,1-14.83-15,14.94,14.94,0,0,1,15-14.89A15,15,0,0,1,.39,942.86,15,15,0,0,1-14.72,957.65Z" transform="translate(98.15 -871.42)"/><path class="cls-2" d="M74.68,954.93a5.23,5.23,0,0,1,5.19,5.14,5.17,5.17,0,0,1-5.09,5.22,2.07,2.07,0,0,0-1.89,1q-5.07,7.18-10.23,14.3a1.73,1.73,0,0,0-.3,1.85,5.07,5.07,0,0,1-1.59,5.7,5.23,5.23,0,0,1-8.47-4.88,1.89,1.89,0,0,0-.49-1.39c-3.4-3.27-6.83-6.51-10.32-9.69-0.38-.35-1.21-0.19-1.82-0.32-1.78-.39-2.58.8-3.46,2-1.69,2.34-3.44,4.63-5.18,6.93-1,1.38-2.31,1.65-3.4.79s-1.08-2.09-.1-3.4c2-2.68,4-5.36,6-8a1.84,1.84,0,0,0,.37-2,5.08,5.08,0,0,1,1.67-5.56,5.23,5.23,0,0,1,5.8-.52,5.49,5.49,0,0,1,2.71,5.32,2.22,2.22,0,0,0,.54,1.6c3.3,3.18,6.65,6.29,10,9.42a3.47,3.47,0,0,0,4.51-.49c3.44-4.8,6.86-9.62,10.32-14.4a1.79,1.79,0,0,0,.24-1.86A5.15,5.15,0,0,1,74.68,954.93Z" transform="translate(98.15 -871.42)"/></svg>