<svg id="Layer_1" data-name="Layer 1" xmlns="http://www.w3.org/2000/svg" viewBox="0 0 250 250"><defs><style>.cls-1{fill:#78418a;}.cls-2{fill:#010101;}</style></defs><title>scared</title><circle class="cls-1" cx="125" cy="125" r="125"/><path class="cls-2" d="M552.7,479.5c-4.39-6.15-10.66-9.68-17.19-9.68s-12.8,3.53-17.19,9.68a38.28,38.28,0,0,0,0,42.09c4.39,6.15,10.66,9.68,17.19,9.68s12.8-3.53,17.19-9.68A38.27,38.27,0,0,0,552.7,479.5ZM535.5,520.42c-6.86,0-12.65-9.1-12.65-19.88s5.79-19.88,12.65-19.88,12.65,9.1,12.65,19.88S542.36,520.42,535.5,520.42Z" transform="translate(-410.5 -348.97)"/><path class="cls-2" d="M525.11,435a18.19,18.19,0,0,0-13-5.17,25.41,25.41,0,0,0-17.66,7.73c-9.16,9.16-10.31,22.92-2.56,30.67a18.19,18.19,0,0,0,13,5.17,25.41,25.41,0,0,0,17.66-7.73C531.71,456.54,532.86,442.78,525.11,435Zm-10.22,23a14.73,14.73,0,0,1-10,4.55,7.44,7.44,0,0,1-5.34-2c-3.46-3.46-2.29-10.49,2.56-15.34a14.73,14.73,0,0,1,10-4.55,7.44,7.44,0,0,1,5.34,2C520.91,446.16,519.73,453.18,514.89,458Z" transform="translate(-410.5 -348.97)"/><path class="cls-2" d="M584.17,452.85a25.88,25.88,0,0,0-7.6-15.27,25.41,25.41,0,0,0-17.66-7.73,18.19,18.19,0,0,0-13,5.17c-7.75,7.75-6.6,21.51,2.56,30.67a25.41,25.41,0,0,0,17.66,7.73,18.19,18.19,0,0,0,13-5.17A18.64,18.64,0,0,0,584.17,452.85Zm-12.71,7.74a7.44,7.44,0,0,1-5.34,2,14.73,14.73,0,0,1-10-4.55c-4.85-4.85-6-11.87-2.56-15.34a7.44,7.44,0,0,1,5.34-2,14.73,14.73,0,0,1,10,4.55,15.23,15.23,0,0,1,4.49,8.8A8,8,0,0,1,571.46,460.59Z" transform="translate(-410.5 -348.97)"/><path class="cls-2" d="M611.09,515.77l-1.44-11.5,0-.16a22.1,22.1,0,0,0-3.82-9,74.1,74.1,0,1,0-140.61,0,22.09,22.09,0,0,0-3.82,9l-1.46,11.66c-1.31,8.85,6.78,18.49,18.87,22.45a21.28,21.28,0,0,0,6.61,1.11,15.37,15.37,0,0,0,11.26-4.6,74.18,74.18,0,0,0,77.71,0,15.36,15.36,0,0,0,11.26,4.6,21.27,21.27,0,0,0,6.61-1.11C604.31,534.27,612.4,524.63,611.09,515.77ZM488.91,527.15a4.52,4.52,0,0,1-3.51,1.34,10.49,10.49,0,0,1-3.23-.57c-7.53-2.46-11.91-8-11.51-10.57l1.46-11.63c0.62-3.69,5.07-9.11,10.17-10.91a3.1,3.1,0,0,1,1-.19c2.22,0,5,3.53,5.51,9.22l1.44,17.31v0.07C490.51,523.81,490,525.92,488.91,527.15Zm82.5-24.31L570,520.23a22.85,22.85,0,0,0,0,4.45,63.3,63.3,0,0,1-68.91,0,22.85,22.85,0,0,0,0-4.45l-1.44-17.32v-0.07c-1.08-11.22-7.78-19.06-16.31-19.06a13.9,13.9,0,0,0-4.62.8,25.13,25.13,0,0,0-4.6,2.18,63.26,63.26,0,1,1,122.86,0,25.14,25.14,0,0,0-4.6-2.18,13.89,13.89,0,0,0-4.62-.8C579.19,483.78,572.48,491.62,571.4,502.84Zm17.45,25.08a10.49,10.49,0,0,1-3.23.57,4.52,4.52,0,0,1-3.51-1.34c-1.12-1.23-1.6-3.34-1.35-5.92l1.45-17.38c0.56-5.7,3.29-9.22,5.51-9.22a3.1,3.1,0,0,1,1,.19c5.1,1.79,9.55,7.21,10.17,10.91l1.43,11.47,0,0.16C600.76,519.93,596.37,525.46,588.85,527.92Z" transform="translate(-410.5 -348.97)"/></svg>