<svg id="Layer_1" data-name="Layer 1" xmlns="http://www.w3.org/2000/svg" viewBox="0 0 250 250"><defs><style>.cls-1{fill:#e45640;}.cls-2{fill:#036673;}</style></defs><title>sleep</title><circle class="cls-1" cx="125" cy="125" r="125"/><path class="cls-2" d="M367.81,441.3h145c0-1.26,0-2.44,0-3.63q0-15.66,0-31.32c0-2.84,1.58-4.5,4.4-4.55,1.89,0,3.79,0,5.68,0a3.7,3.7,0,0,1,4,4q0,30,0,60.06a3.44,3.44,0,0,1-3.63,3.71c-2.12.06-4.25,0.07-6.37,0-2.66-.09-4.05-1.62-4.05-4.27,0-3.89,0-7.78,0-11.78h-145c0,3,0,5.95,0,8.91,0,1.15,0,2.29,0,3.44a3.4,3.4,0,0,1-3.45,3.69c-2.18.09-4.36,0.09-6.54,0-2.68-.1-4.06-1.6-4.06-4.26q0-41.31,0-82.61c0-2.76,1.39-4.2,4.2-4.27,1.95-.05,3.9,0,5.85,0,2.73,0,4,1.31,4,4q0,28.57,0,57.14C367.81,440.11,367.81,440.67,367.81,441.3Z" transform="translate(-312.21 -286.08)"/><path class="cls-2" d="M440.62,435.48H379c-3.25,0-4.27-1-4.27-4.32q0-7.83,0-15.66c0-2.94,1.47-4.41,4.45-4.41H494.15c2.81,0,5.62,0,8.43,0a3.69,3.69,0,0,1,4,4q0,8.43,0,16.86c0,2.36-1.17,3.52-3.65,3.53-4.7,0-9.41,0-14.11,0H440.62Z" transform="translate(-312.21 -286.08)"/><path class="cls-2" d="M410.9,405.07c0-5.74,0-11.3,0-16.86,0-.28.06-0.56,0.1-1,3.44-.28,6.86-0.71,10.28-0.83,11.23-.4,22.47-0.95,33.71-0.94,11.07,0,22.12.86,32.92,3.6a39.07,39.07,0,0,1,13.23,5.57c2.78,2,5.05,4.36,5.49,8a21.76,21.76,0,0,1,0,2.49H410.9Z" transform="translate(-312.21 -286.08)"/><path class="cls-2" d="M407.08,391.36a16.28,16.28,0,0,1-32.55,0A16.28,16.28,0,1,1,407.08,391.36Z" transform="translate(-312.21 -286.08)"/><path class="cls-2" d="M435.23,334.62l-7.59,4.31-2-3.52L439,327.84c1.25,1.51,2.05,3,1.51,5.11-1,3.87-1.68,7.81-2.56,12.05l8.77-4.94,2.12,3.77L434.36,352c-1.42-1.82-2.21-3.49-1.55-5.87C433.84,342.46,434.41,338.66,435.23,334.62Z" transform="translate(-312.21 -286.08)"/><path class="cls-2" d="M421.58,359.19l1.31,2.36-9,5.08a3.59,3.59,0,0,1-1-3.67c0.59-2.25,1-4.56,1.48-7.16l-4.73,2.65-1.28-2.18,8.89-5a19.1,19.1,0,0,1,.28,3.86c-0.33,2.3-.91,4.57-1.46,7.17Z" transform="translate(-312.21 -286.08)"/></svg>