<svg id="Layer_1" data-name="Layer 1" xmlns="http://www.w3.org/2000/svg" viewBox="0 0 250 250"><defs><style>.cls-1{fill:#d71f27;}.cls-2{fill:#efac24;}</style></defs><title>solodrive</title><circle class="cls-1" cx="125" cy="125" r="125"/><path class="cls-2" d="M559.65,334.46v6L552,348c5.95,13.71,7.14,28.63,2.16,43.51a45.15,45.15,0,0,0-2.54,15c0,8.87-.88,9.77-9.59,9.69-6.59-.06-7.88-1.31-8.1-7.81,0-1.14-.15-2.28-0.24-3.58H430.24c-0.64,3.44-.34,8.42-1.93,9.13-3.77,1.67-8.51,1.93-12.7,1.42-1.47-.18-3.08-4.17-3.54-6.62-0.72-3.87.62-8.43-.91-11.8-7.61-16.85-5.57-33.31.36-50.09a0.59,0.59,0,0,0-.39-0.28c-5.81-1.75-7.83-4.8-7.19-10.64,0.63-5.68,4.67-5.63,8.85-5.43a22.32,22.32,0,0,1,2.5,0c4.52,0.74,7.65-.74,9.14-5.3a43.62,43.62,0,0,1,2.07-4c4.34-9.68,9.92-18.08,21.13-20.76h68c9.45,2.61,15.82,8.58,19.48,17.62,0.87,2.14,2.53,4,3.24,6.16,1.73,5.3,5.13,7,10.54,6.33C552.94,330.07,557.35,329.66,559.65,334.46ZM535.85,346c-3.87-9.8-7.61-19.2-11.28-28.61-2.14-5.48-6.44-8.12-12-8.17-20.65-.18-41.31-0.34-61.94.18-3.62.09-8.94,2.54-10.4,5.44-5,10-8.66,20.67-13,31.6,18.46,0,36.1.08,53.74-.13,1.54,0,3-2,4.58-2.9,2.84-1.7,5.64-4.47,8.63-4.73a159.33,159.33,0,0,1,23.45-.05c2.66,0.16,6.25,1.63,7.56,3.69C527.88,346.54,531.09,347.08,535.85,346Zm-91.39,30.87c0-5.61-7.08-12.34-13.08-12.44a7.25,7.25,0,0,0-7.58,7.53c0.16,6.11,6.82,12.53,12.9,12.43A7.67,7.67,0,0,0,444.46,376.91Zm87.59-12.44c-5.91,0-13.09,6.68-13.21,12.3a7.7,7.7,0,0,0,8.12,7.67c6.17-.17,12.67-6.8,12.53-12.78A7.28,7.28,0,0,0,532.06,364.47Zm-50.4,21.26c7,0,14,.11,20.95-0.1,1.31,0,2.58-1.39,3.87-2.13-1.29-1-2.57-2.9-3.88-2.92q-20.94-.32-41.89,0c-1.3,0-2.58,1.91-3.86,2.93,1.29,0.74,2.57,2.07,3.88,2.11C467.68,385.85,474.67,385.74,481.65,385.74Z" transform="translate(-355.48 -232.57)"/><path class="cls-2" d="M506.77,334.44a10.87,10.87,0,0,1-11.1-10.9A10.81,10.81,0,1,1,506.77,334.44Z" transform="translate(-355.48 -232.57)"/></svg>