<svg id="Layer_1" data-name="Layer 1" xmlns="http://www.w3.org/2000/svg" viewBox="0 0 250 250"><defs><style>.cls-1{fill:#469ed7;}.cls-2{fill:#ef9527;}</style></defs><title>stretch</title><circle class="cls-1" cx="125" cy="125" r="125"/><path class="cls-2" d="M317,498.34a12.33,12.33,0,0,1,.06,6l-6.39,27,0.55,8a6.41,6.41,0,0,0,4.3-5.28l4.42-35.69A18.14,18.14,0,0,1,317,498.34Z" transform="translate(-187.64 -375.26)"/><path class="cls-2" d="M370.35,467.5l-10.58-22.27a13,13,0,0,0-1.63-2.59c-1.79-2.2-6.17-7.6-14.28-17.53a4.82,4.82,0,0,0-7.74.38L321,448.26a4.81,4.81,0,1,0,8,5.32l11.48-17.32,9.63,11.8-26.28,12.43a19.32,19.32,0,0,1,7.79,32.91l12.55,41.72a6.42,6.42,0,1,0,12.29-3.7l-14.2-47.18,18.3-9.27-4.92,20.79a4.83,4.83,0,0,0-.12,1.43L357.13,520a4.81,4.81,0,0,0,9.61-.65l-1.5-22,5.71-24.12A8.56,8.56,0,0,0,370.35,467.5Z" transform="translate(-187.64 -375.26)"/><circle class="cls-2" cx="191.48" cy="74.85" r="11.14"/><path class="cls-2" d="M309.28,498.62c-3.56-7.53-9.89-20.85-11.9-25.08a13,13,0,0,0-1.64-2.6l-15.68-19.22a5.27,5.27,0,0,0-8.48.42l-16.52,24.93a5.27,5.27,0,0,0,8.79,5.82l12.57-19L287,476.85C267.76,485.93,246.52,496,246.52,496a7,7,0,0,0-3,4.92l-8.47,68.34A7,7,0,0,0,249,571l7.68-62,7.75,9.91,16,53.24a7,7,0,1,0,13.46-4l-15.54-51.66,20-10.15L293,529.07a5.27,5.27,0,0,0-.13,1.57l1.69,24.93a5.27,5.27,0,0,0,10.52-.71l-1.64-24.14,6.36-26.94A7.85,7.85,0,0,0,309.28,498.62Z" transform="translate(-187.64 -375.26)"/><path class="cls-2" d="M329.22,473a12.2,12.2,0,0,0-15.76-4.91h0A12.2,12.2,0,1,0,329.22,473Z" transform="translate(-187.64 -375.26)"/></svg>