<svg id="Layer_1" data-name="Layer 1" xmlns="http://www.w3.org/2000/svg" viewBox="0 0 250 250"><defs><style>.cls-1{fill:#45bb95;}.cls-2{fill:#d65736;}</style></defs><title>strong</title><circle class="cls-1" cx="125" cy="125" r="125"/><path class="cls-2" d="M384.94,775.19c3.9-12.63,7-25.56,11.9-37.81,6.11-15.39,14.29-30,20.34-45.35,5.25-13.37,16.08-20.83,26.72-28.67,1.63-1.2,5.7-.8,7.65.43,5.81,3.66,11.11,8.12,16.63,12.24,3.75,2.8,4.37,6.24,2.22,10.31-1.09,2.06-1.87,3.68.28,6.07,2.51,2.8-.3,7.54-4.33,8.34a32.37,32.37,0,0,0-7.57,2c-5.18,2.45-10.3,4.27-16.24,3.38-1.37-.21-3.69,1.51-4.53,3a68.26,68.26,0,0,0-9.49,36.33c0.26,11.42,1.26,22.83,2.07,34.24a5.49,5.49,0,0,0,1.74,3.5c0.41,0.34,2.28-.55,3.11-1.3Q458.5,761,485.8,775.47c0.4,0.21.83,0.36,1.45,0.63,6-7,13.2-11.89,22.8-12.27A31.06,31.06,0,0,1,542,787.64c0.31,1.2.73,2.36,1.09,3.54v9.41a11.92,11.92,0,0,0-.92,2.06c-3.62,15.1-15,24.8-30.48,25-27.55.43-55.2,1.83-82.5-2.86-12.23-2.1-24.24-5.77-36.12-9.46-6-1.87-6.78-5.18-6.54-11.37,0.17-4.56-1-9.18-1.54-13.77Q384.94,782.72,384.94,775.19Z" transform="translate(-334.78 -627.76)"/></svg>