<svg id="Layer_1" data-name="Layer 1" xmlns="http://www.w3.org/2000/svg" viewBox="0 0 250 250"><defs><style>.cls-1{fill:#bc5839;}.cls-2{fill:#6e2a15;}</style></defs><title>wine</title><circle class="cls-1" cx="125" cy="125" r="125"/><path class="cls-2" d="M509.69,81.93c2,1,3.1,2.5,2.78,4.86a6.32,6.32,0,0,0,.37,1.43,17.22,17.22,0,0,1,.39,3.8c-0.22,2.45-.88,4.86-1,7.3-0.4,6.54-.88,13.09.82,19.56a39.72,39.72,0,0,0,5.81,12.52c3.47,5,6.66,10.24,8.24,16.22a24.72,24.72,0,0,1,.92,6.16q0.14,33.76.13,67.52c0,8-.06,16.06,0,24.09a6.54,6.54,0,0,1-3,5.72,21.46,21.46,0,0,1-10,3.47c-9.52,1.25-19.07,1.44-28.49-.67a27.21,27.21,0,0,1-7.46-3.38c-1.73-1-2.4-2.87-2.39-5q0-45.81,0-91.62c0-4.88,1.65-9.32,3.84-13.55a86.74,86.74,0,0,1,5.51-9.13c5.3-7.73,7.31-16.29,6.84-25.53-0.15-2.88-.27-5.76-0.51-8.63a29.55,29.55,0,0,0-.74-4.28,5.87,5.87,0,0,1,.33-4.6,2.14,2.14,0,0,0,.28-1.28,4.47,4.47,0,0,1,2.77-5h14.59Zm11,94.19a7.86,7.86,0,0,0,.11-0.85c0-7.35,0-14.7,0-22.05a12.82,12.82,0,0,0-.47-3c-1.32-5.24-4.11-9.75-7.14-14.12-5.24-7.55-8.54-15.8-8.64-25.07-0.06-5.64.33-11.29,0.54-16.94,0.06-1.51.22-3,.34-4.63h-6.08c0.11,1.43.21,2.75,0.32,4.06,0,0.45.13,0.89,0.15,1.34,0.17,3.39.27,6.78,0.51,10.16a46.64,46.64,0,0,1-7.92,30c-2.1,3.13-4,6.41-5.81,9.73a20.7,20.7,0,0,0-2.47,10.58c0.15,6.39.05,12.78,0.06,19.17,0,0.49,0,1,.08,1.58h36.44Zm-0.07,7.46H484.3v35.75h36.32V183.59Zm0.14,43.35H484.25v19a74.79,74.79,0,0,0,36.51,0v-19Z" transform="translate(-403.13 -58.59)"/><path class="cls-2" d="M548,255.72c-1.36-.95-2.37-2.09-2.14-3.91a3.55,3.55,0,0,1,3.74-3.19c4,0,8,0,12,0h2c0-4.06,0-7.94,0-11.83,0-3.05.06-6.11,0-9.16a3.57,3.57,0,0,0-.94-2.14c-3.9-4.09-8-8-11.8-12.17-4.91-5.35-6.52-12-6.9-19-0.44-8.31,1.29-16.41,2.54-24.56,0.58-3.79,1.27-7.57,1.87-11.36,0.43-2.74,1.67-3.86,4.41-3.86h28.67c3.1,0,4.12.86,4.62,3.95,1.42,8.92,2.95,17.82,4.17,26.76a44.35,44.35,0,0,1-.89,17.14,26.88,26.88,0,0,1-6.66,12c-3.51,3.69-7.15,7.24-10.68,10.9a3.36,3.36,0,0,0-1.06,2c-0.07,6.9,0,13.8,0,20.7a3.89,3.89,0,0,0,.17.68h14.16c2,0,3.24.78,3.84,2.42a3.5,3.5,0,0,1-1.33,4.19,2.82,2.82,0,0,0-.38.5H548Zm2.8-65.24h32.89l-4.32-28.63h-24.3Zm0.94,7.58c0.35,6.14,6.33,14.38,15.83,21.79,4-4.45,8.17-8.84,12-13.46a15.64,15.64,0,0,0,3.18-8.34H551.79Z" transform="translate(-403.13 -58.59)"/></svg>