<svg id="Layer_1" data-name="Layer 1" xmlns="http://www.w3.org/2000/svg" viewBox="0 0 250 250"><defs><style>.cls-1{fill:#b13241;}.cls-2{fill:#fbdb4c;}</style></defs><title>work</title><circle class="cls-1" cx="125" cy="125" r="125"/><g id="zGhkyC.tif"><path class="cls-2" d="M296.21,640.24c0,1,0,1.69,0,2.41q0,28.74,0,57.48c0,3.12,1,4.11,4.06,4.11h29.16c2.95,0,4-1.05,4-4q0-22.58,0-45.15,0-10.83,0-21.66c0-2.63-1.12-3.71-3.77-3.73H317.43v-2.19c0-11.16.07-22.33-.06-33.49a22.18,22.18,0,0,0-1.38-6.08c-0.39-1.25-1.26-2.35-1.72-3.59a4.47,4.47,0,0,1-.22-2.5c0.93-3.6,2-7.15,3-10.73,0.71-2.54.38-3.14-2.13-3.84L310.44,566c-2.31-.64-3-0.29-3.63,2q-6.53,23-13,46.08c-0.49,1.74,0,2.58,1.76,3.09s3.53,1,5.3,1.43c2,0.52,2.72.09,3.28-1.89,0.78-2.77,1.55-5.55,2.37-8.32a2.55,2.55,0,0,1,.76-1.4c1.53-1,3.14-1.78,4.83-2.72v20c-2.47,0-4.81,0-7.13,0-1.4,0-2.54.32-3.1,1.72s0.06,2.35,1.1,3.18a1.26,1.26,0,0,1,.16.45H262.69c-2.72,0-3.79,1.11-3.8,3.87,0,0.94,0,1.89,0,2.83,0,2.72,1.13,3.85,3.83,3.85h33.51Zm-53.4-21.55c2.4,1.5,4.44,2.94,6.64,4.06a11.48,11.48,0,0,0,4.68,1.42c5.88,0.17,11.78.09,17.66,0.06a8,8,0,0,0,8.29-8.11c-0.06-4.4-3.63-7.75-8.3-7.76s-9.44,0-14.17,0a5.28,5.28,0,0,1-2.48-.7c-4.08-2.37-8.11-4.81-12.14-7.27a17.56,17.56,0,0,0-9.65-2.68c-1.83,0-3.67,0-5.5,0-7.28,0-11.64,4.33-11.64,11.56q0,20.58,0,41.16c0,6.66,4.56,11.17,11.22,11.16q14.83,0,29.67,0c0.54,0,1.08,0,1.77.08,0,0.64,0,1.18,0,1.72q0,17.58,0,35.16c0,3.55,2.19,5.69,5.73,5.7q7.5,0,15,0c3.43,0,5.82-2.2,5.81-5.29s-2.4-5.24-5.84-5.25h-4.82v-2.46q0-17.08,0-34.17c0-6.91-4.41-11.36-11.33-11.38-6.22,0-12.44,0-18.67,0h-1.95v-27Zm-32,48.34c0-.85,0-1.51,0-2.16q0-28.07,0-56.14c0-3.31-2.2-5.67-5.23-5.7a5.32,5.32,0,0,0-5.32,5.62q0,31.65,0,63.3a5.26,5.26,0,0,0,5.62,5.62c4.61,0,9.22,0,13.83,0h1.76v16.12h-2.75c-0.94,0-1.89,0-2.83,0a5.27,5.27,0,1,0,5.28,7c0.19-.56.32-1.13,0.46-1.65h10.53c0.06,0.33.09,0.55,0.14,0.76,0.74,3,3.18,4.83,5.92,4.43a5.37,5.37,0,0,0,4.58-5.65c-0.24-2.89-2.53-4.83-5.73-4.86-1.59,0-3.19,0-4.79,0V677.57c5.31,0,10.47,0,15.63,0a5.28,5.28,0,1,0,0-10.54c-4.61,0-9.22,0-13.83,0H210.77ZM232,592.23a15.94,15.94,0,1,0-15.83-16.13A16,16,0,0,0,232,592.23Z" transform="translate(-144.32 -504.46)"/><path class="cls-2" d="M296.21,640.24H262.71c-2.71,0-3.82-1.12-3.83-3.85,0-.94,0-1.89,0-2.83,0-2.76,1.09-3.86,3.8-3.87h40.42a1.26,1.26,0,0,0-.16-0.45c-1-.83-1.64-1.82-1.1-3.18s1.69-1.75,3.1-1.72c2.33,0,4.66,0,7.13,0v-20c-1.69.93-3.3,1.76-4.83,2.72a2.55,2.55,0,0,0-.76,1.4c-0.82,2.76-1.58,5.54-2.37,8.32-0.56,2-1.31,2.42-3.28,1.89-1.77-.47-3.54-0.93-5.3-1.43s-2.25-1.35-1.76-3.09q6.51-23,13-46.08c0.66-2.32,1.32-2.67,3.63-2l4.49,1.25c2.5,0.71,2.84,1.31,2.13,3.84-1,3.57-2.08,7.13-3,10.73a4.47,4.47,0,0,0,.22,2.5c0.46,1.24,1.33,2.34,1.72,3.59a22.18,22.18,0,0,1,1.38,6.08c0.13,11.16.06,22.33,0.06,33.49v2.19h12.22c2.65,0,3.77,1.1,3.77,3.73q0,10.83,0,21.66,0,22.58,0,45.15c0,3-1.05,4-4,4H300.28c-3.07,0-4.06-1-4.06-4.11q0-28.74,0-57.48C296.21,641.93,296.21,641.21,296.21,640.24Z" transform="translate(-144.32 -504.46)"/><path class="cls-2" d="M242.82,618.68v27h1.95c6.22,0,12.44,0,18.67,0,6.92,0,11.33,4.46,11.33,11.38q0,17.08,0,34.17v2.46h4.82c3.44,0,5.83,2.17,5.84,5.25s-2.37,5.28-5.81,5.29q-7.5,0-15,0c-3.55,0-5.73-2.15-5.73-5.7q0-17.58,0-35.16c0-.54,0-1.08,0-1.72-0.7,0-1.24-.08-1.77-0.08q-14.83,0-29.67,0c-6.66,0-11.21-4.5-11.22-11.16q0-20.58,0-41.16c0-7.23,4.36-11.56,11.64-11.56,1.83,0,3.67,0,5.5,0a17.56,17.56,0,0,1,9.65,2.68c4,2.45,8.07,4.89,12.14,7.27a5.28,5.28,0,0,0,2.48.7c4.72,0.07,9.44,0,14.17,0s8.24,3.36,8.3,7.76a8,8,0,0,1-8.29,8.11c-5.89,0-11.78.11-17.66-.06a11.48,11.48,0,0,1-4.68-1.42C247.26,621.62,245.22,620.18,242.82,618.68Z" transform="translate(-144.32 -504.46)"/><path class="cls-2" d="M210.77,667H234c4.61,0,9.22,0,13.83,0a5.28,5.28,0,1,1,0,10.54c-5.16,0-10.33,0-15.63,0v16.12c1.6,0,3.2,0,4.79,0,3.2,0,5.48,2,5.73,4.86a5.37,5.37,0,0,1-4.58,5.65c-2.73.4-5.17-1.42-5.92-4.43-0.05-.21-0.08-0.43-0.14-0.76H221.6c-0.14.51-.27,1.09-0.46,1.65a5.28,5.28,0,0,1-5.92,3.5,5.28,5.28,0,0,1,.64-10.46c0.94,0,1.89,0,2.83,0h2.75V677.57h-1.76c-4.61,0-9.22,0-13.83,0a5.26,5.26,0,0,1-5.62-5.62q0-31.65,0-63.3a5.32,5.32,0,0,1,5.32-5.62c3,0,5.23,2.39,5.23,5.7q0,28.07,0,56.14C210.77,665.51,210.77,666.17,210.77,667Z" transform="translate(-144.32 -504.46)"/><path class="cls-2" d="M232,592.23a15.94,15.94,0,1,1,16-15.75A16,16,0,0,1,232,592.23Z" transform="translate(-144.32 -504.46)"/></g></svg>